<?xml version="1.0" encoding="UTF-8"?>
<svg id="Layer_1" data-name="Layer 1" xmlns="http://www.w3.org/2000/svg" viewBox="0 0 512 512">
  <defs>
    <style>
      .cls-1 {
        fill: #fff;
        stroke-width: 0px;
      }
    </style>
  </defs>
  <path class="cls-1" d="m0,255.75C.59,114.51,116.15-.73,256.45,0c141.14.74,256.19,116.1,255.55,256.23-.64,141.32-116.22,256.59-256.45,255.76C114.33,511.16-.58,395.93,0,255.75ZM256.27,30.05c-124.35-.23-225.91,101.04-226.22,225.57-.31,124.3,100.88,225.87,225.47,226.33,124.38.46,226.28-101.16,226.43-225.79.15-124.38-101.16-225.87-225.68-226.1Z"/>
  <path class="cls-1" d="m261.71,366.98c-52.04-.02-93.06-28.61-109.77-72.47-15.99-41.95-4-90.42,29.95-121.07,6.82-6.16,16.3-6.11,21.97.11,5.9,6.48,5.32,15.47-1.63,21.89-18.49,17.1-27.69,38.21-27.15,63.41.83,38.65,31.68,72.63,69.94,77.27,50.58,6.14,93.49-32.46,91.86-83.08-.73-22.57-9.89-41.63-26.48-57.01-4.81-4.46-6.85-9.78-5-16.15,1.7-5.86,5.85-9.34,11.83-10.41,4.97-.89,9.26.7,13.01,4.04,42.06,37.51,49.04,102.07,15.58,147.44-22.25,30.17-52.58,45.07-84.1,46.01Z"/>
  <path class="cls-1" d="m240.99,175.51c0-12.63-.03-25.27,0-37.9.03-9.75,6.14-16.51,14.88-16.58,8.92-.07,15.12,6.73,15.13,16.74.03,25.54.03,51.09,0,76.63-.01,9.74-6.15,16.51-14.88,16.57-8.9.07-15.1-6.75-15.13-16.74-.03-12.91,0-25.82,0-38.73Z"/>
</svg>