<?xml version="1.0" encoding="UTF-8"?>
<svg id="Layer_1" data-name="Layer 1" xmlns="http://www.w3.org/2000/svg" viewBox="0 0 430 512">
  <defs>
    <style>
      .cls-1 {
        fill: #fff;
        stroke-width: 0px;
      }
    </style>
  </defs>
  <path class="cls-1" d="m215.12,511.99c-40.93,0-81.87-.03-122.8.01-20.57.02-39.97-4.07-57.11-15.99-19.79-13.77-31.18-32.84-33.89-56.52-3.25-28.39-.14-56.54,5.3-84.48,4.15-21.3,11.07-41.56,22.42-60.18,18.93-31.07,46.88-46.56,83.23-47.47,6.14-.15,11.42,2.41,16.44,5.5,7.72,4.75,15.26,9.78,23,14.49,21.6,13.15,44.83,20.5,70.41,18.81,19.9-1.31,38.18-7.8,55.18-17.96,9.45-5.65,18.68-11.66,28.09-17.37,4.79-2.91,10.08-3.62,15.7-3.35,38.7,1.85,66.16,20.68,84.18,54.3,13.72,25.59,20,53.23,22.74,81.72,1.51,15.72,2.43,31.64,1.78,47.4-1.31,31.48-15.63,55.7-44.06,70.75-12.92,6.84-26.97,10.1-41.52,10.18-43.03.23-86.06.08-129.09.08,0,.03,0,.06,0,.09Zm0-30.01c5.31,0,10.62,0,15.93,0,37.3-.02,74.61.3,111.91-.17,35.32-.44,57-22.7,56.92-57.71-.04-18.48-.88-36.93-4.21-55.18-4.07-22.28-10.06-43.8-23.12-62.84-12.29-17.92-29.27-27.3-50.92-28.44-1.67-.09-3.62.51-5.06,1.39-7.73,4.73-15.33,9.68-23,14.49-17.85,11.2-37.37,18.18-58.12,21.41-29.5,4.6-57.71-.65-84.23-13.72-12.83-6.32-24.67-14.63-37.03-21.93-1.59-.94-3.62-1.71-5.41-1.64-12.86.51-24.8,4.15-35.19,11.8-13.11,9.65-21.25,23.11-27.27,37.77-13.56,33.04-16.64,67.85-15.63,103.04.58,20.17,10.03,35.89,28.65,45.19,10.34,5.17,21.53,6.55,32.97,6.54,40.94-.03,81.87-.01,122.81,0Z"/>
  <path class="cls-1" d="m212.1,246.67c-68.23.65-124.44-55.73-124.48-122.81C87.58,55.69,142.54.68,211.52,0c67.14-.66,124.54,54.83,124.73,123.07.18,67.01-55.55,124.02-124.15,123.59Zm-.07-30.02c52.43-.19,93.77-41.86,93.94-93.61.16-51.12-43.62-93.56-94.18-93.05-52.3.53-94.09,41.84-93.85,93.7.23,51.78,42.11,93.15,94.09,92.96Z"/>
</svg>