<?xml version="1.0" encoding="UTF-8"?>
<svg id="Layer_1" data-name="Layer 1" xmlns="http://www.w3.org/2000/svg" viewBox="0 0 540 512">
  <defs>
    <style>
      .cls-1 {
        fill: #fff;
        stroke-width: 0px;
      }
    </style>
  </defs>
  <path class="cls-1" d="m424.79,215.57c3.35,0,5.08,0,6.81,0,26.04,0,52.08.43,78.1-.14,18.88-.41,30.45,13.81,30.29,30.41-.53,54.85-.28,109.71-.12,164.57.03,9.39-3.05,16.96-9.69,23.52-23.07,22.85-46.04,45.8-68.94,68.83-6.25,6.29-13.54,9.26-22.39,9.24-61.72-.08-123.45-.05-185.17-.02-6.48,0-12.39-1.5-17.78-5.25-.93-.65-3.1-.61-4.05.05-5.39,3.75-11.31,5.2-17.79,5.2-61.72-.03-123.45.01-185.17-.04-17.87-.02-28.86-11.24-28.86-29.19C.04,424.38.09,366.02,0,307.65c-.02-11.78,5.11-19.87,14.91-26.41,21.28-14.2,42.05-29.17,62.99-43.88,7.9-5.54,15.56-11.44,23.62-16.73,3.33-2.18,7.33-3.87,11.23-4.52,3.74-.63,4.32-2.12,4.28-5.39-.16-12.14-.06-24.28-.06-36.42,0-27.21.12-54.42-.05-81.63-.08-12.09,5.02-20.5,15.18-27.19,19.04-12.54,37.51-25.96,56.18-39.07,10.17-7.14,20-14.81,30.5-21.43,4.35-2.74,10.04-4.7,15.14-4.73,56.9-.33,113.79-.3,170.69-.15,15.86.04,26.97,11.34,27.22,27.25.22,14.63.06,29.26.06,43.88,0,38.47-.01,76.95,0,115.42,0,9.78.87,19.7-7.09,28.9Zm-78.53,278.39c30.56,0,61.11,0,91.67,0,8.89,0,11.97-3,11.97-11.79.02-58.05.02-116.1,0-174.15,0-8.47-3.18-11.59-11.75-11.59-61.26-.02-122.52-.02-183.77,0-8.31,0-11.44,3.1-11.44,11.39-.02,58.2-.02,116.39,0,174.59,0,8.61,3.01,11.55,11.66,11.55,30.56,0,61.11,0,91.67,0Zm-224.93,0c30.41,0,60.82,0,91.23,0,9.63,0,12.28-2.61,12.28-12.16,0-57.76,0-115.52,0-173.28,0-9.32-2.75-12.09-11.99-12.1-60.97-.01-121.94-.01-182.91,0-8.86,0-11.95,3.05-11.95,11.79-.01,58.05-.01,116.11,0,174.16,0,8.53,3.09,11.58,11.66,11.58,30.56.01,61.12,0,91.67,0Zm116.94-215.62c30.41,0,60.82,0,91.23,0,9.68,0,12.26-2.56,12.27-12.13,0-57.76,0-115.51,0-173.27,0-9.33-2.66-12.01-11.96-12.01-60.96,0-121.93-.01-182.89,0-9.05,0-11.87,2.8-11.87,11.7,0,57.9,0,115.8,0,173.7,0,9.28,2.71,11.99,12.01,12,30.41.01,60.82,0,91.23,0ZM413.87,30.63c-1.2.33-1.54.33-1.74.5-17.66,15.35-35.33,30.69-52.89,46.15-.8.7-.95,2.52-.85,3.78.36,4.2,1.4,8.37,1.41,12.56.1,51.64.07,103.28.07,154.92,0,1.68,0,3.35,0,6.24,1.98-1.78,3.05-2.66,4.03-3.64,15.01-14.98,29.93-30.06,45.07-44.91,3.66-3.59,4.97-7.51,4.96-12.5-.1-52.66-.06-105.33-.06-157.99v-5.1Zm107.97,215.51c-.96.14-1.15.11-1.24.19-17.76,15.44-35.54,30.87-53.21,46.41-.85.74-1.2,2.53-1.1,3.78.38,4.78,1.51,9.53,1.52,14.29.12,51.05.07,102.1.07,153.14v6.38c2.15-1.99,3.3-3,4.38-4.07,14.8-14.77,29.51-29.64,44.45-44.27,3.75-3.67,5.23-7.62,5.22-12.84-.13-52.66-.08-105.31-.08-157.97v-5.03Zm-14.93-12.05c-1.83-.27-2.4-.42-2.96-.42-31.42-.02-62.84-.06-94.25.08-1.77,0-3.94,1.12-5.25,2.41-13.12,12.91-26.11,25.96-39.12,39-.75.76-1.35,1.66-2.57,3.18,2.44,0,4.02,0,5.6,0,23.09,0,46.18-.08,69.27.08,4.03.03,8.18.65,12.03,1.81,2.69.81,4.23.32,6.17-1.4,12.37-10.93,24.84-21.75,37.28-32.62,4.35-3.8,8.69-7.63,13.81-12.12ZM269.98,62.6c2.73.12,4.26.25,5.79.26,18.12.01,36.24-.09,54.36.09,4.03.04,8.03,1.3,12.07,1.61,1.74.14,4.05-.12,5.27-1.17,16.07-13.81,31.98-27.79,47.96-41.71,1.04-.9,2.24-1.62,4.06-2.93-1.91-.49-2.31-.68-2.7-.68-22.5-.02-45.01-.07-67.51.05-1.7,0-3.64.98-5.04,2.05-16.78,12.93-33.49,25.96-50.2,38.97-1.08.84-2.09,1.78-4.05,3.45Zm-100.38-.99c.14.32.29.65.43.97.83.09,1.66.27,2.49.27,21.48.02,42.96.07,64.43-.09,1.97-.01,4.23-1.06,5.85-2.3,16.81-12.89,33.52-25.91,50.24-38.91,1.08-.84,2.05-1.83,3.34-2.99-.9-.27-1.28-.49-1.67-.49-20.31-.01-40.62-.06-60.93.07-1.76.01-3.76.8-5.23,1.83-15.09,10.53-30.1,21.19-45.12,31.81-4.62,3.27-9.23,6.55-13.84,9.83Zm-52.33,172.66c-.59-.4-1.19-.81-1.78-1.21-21.01,14.72-42.02,29.44-64.05,44.88h65.84v-43.66Z"/>
  <path class="cls-1" d="m296.69,422.18c5.99,0,11.97-.1,17.96.02,10.49.22,17.88,7.44,18.24,17.94.21,5.98.21,11.98,0,17.96-.37,10.45-7.84,17.83-18.25,17.95-11.82.14-23.65.14-35.47,0-10.1-.12-17.49-6.99-18.1-17.09-.4-6.54-.4-13.15,0-19.7.62-10.16,7.89-16.84,18.11-17.06,5.84-.13,11.68-.02,17.52-.02Zm-17.74,18.16c0,4.93.17,9.42-.06,13.89-.16,3.18,1.16,3.92,4.08,3.87,9.18-.15,18.36-.04,27.54-.07,1.38,0,2.77-.2,4.07-.29v-17.4h-35.63Z"/>
  <path class="cls-1" d="m409.3,422.19c4.39,0,8.77-.11,13.16.03,5.57.18,9.38,3.97,9.31,9.02-.07,5.04-3.91,8.82-9.46,8.91-8.62.13-17.25.13-25.87,0-5.6-.08-9.4-3.79-9.49-8.84-.09-5.3,3.69-8.87,9.64-9.11.29-.01.58-.01.88-.01,3.95,0,7.89,0,11.84,0v.02Z"/>
  <path class="cls-1" d="m409.38,476.07c-4.39,0-8.78.12-13.16-.03-5.55-.18-9.32-3.96-9.28-9.04.04-5.06,3.84-8.82,9.42-8.9,8.62-.13,17.25-.12,25.88,0,5.58.07,9.44,3.8,9.54,8.83.1,5.18-3.87,8.94-9.68,9.16-.29.01-.58,0-.88,0-3.95,0-7.9,0-11.84,0v-.02Z"/>
  <path class="cls-1" d="m71.57,476.08c-5.84,0-11.68.1-17.52-.02-10.12-.22-17.71-7.65-18.02-17.74-.18-6.13-.18-12.27,0-18.39.29-9.94,7.66-17.49,17.57-17.67,12.26-.23,24.53-.23,36.79,0,9.82.18,17.08,7.41,17.5,17.22.27,6.41.28,12.86,0,19.27-.43,9.95-7.92,17.09-17.93,17.31-6.13.13-12.26.02-18.39.02Zm18.07-35.53h-35.34v17.22h35.34v-17.22Z"/>
  <path class="cls-1" d="m184.52,458.06c4.39,0,8.78-.12,13.16.03,5.5.19,9.27,4.05,9.18,9.14-.09,4.93-3.75,8.69-9.08,8.78-8.91.16-17.84.17-26.75-.01-5.35-.11-8.88-3.88-8.91-8.89-.02-5.02,3.49-8.77,8.81-9,4.52-.2,9.06-.04,13.59-.04v-.02Z"/>
  <path class="cls-1" d="m184.47,440.16c-4.38,0-8.77.12-13.15-.03-5.58-.19-9.23-3.9-9.2-9.07.03-5.03,3.52-8.7,8.95-8.81,8.91-.18,17.83-.18,26.74,0,5.4.1,8.98,3.82,9.03,8.78.05,5.09-3.72,8.82-9.22,9.14-.29.02-.58.01-.88.01-4.09,0-8.18,0-12.28,0v-.02Z"/>
  <path class="cls-1" d="m188.88,260.42c-5.99,0-11.97.11-17.96-.03-10.36-.24-17.78-7.76-17.97-18.17-.11-5.84-.12-11.68,0-17.52.22-10.33,7.74-17.92,18.11-18.06,11.97-.15,23.94-.17,35.91,0,10.26.15,17.56,7.49,17.85,17.75.17,6.13.18,12.27,0,18.4-.31,10.22-7.67,17.39-17.98,17.6-5.98.12-11.97.02-17.96.02Zm18.01-35.56h-35.53v17.57c11.3,0,22.24.05,33.17-.1.8-.01,2.22-1.47,2.26-2.31.22-4.93.11-9.88.11-15.16Z"/>
  <path class="cls-1" d="m301.03,224.48c-4.39,0-8.78.12-13.16-.04-5.12-.18-8.66-3.69-8.85-8.48-.2-5.04,3.22-9.1,8.51-9.24,9.2-.25,18.42-.24,27.63-.01,5.29.13,8.78,4.15,8.64,9.14-.14,4.94-3.79,8.47-9.18,8.62-4.53.13-9.06.03-13.6.02Z"/>
  <path class="cls-1" d="m301.09,260.41c-4.38,0-8.77.12-13.15-.04-5.14-.18-8.69-3.66-8.92-8.42-.24-4.98,3.15-9.15,8.45-9.32,9.2-.31,18.42-.29,27.62-.03,5.35.15,8.83,4.17,8.72,9.11-.11,4.92-3.75,8.51-9.12,8.68-4.53.15-9.06.03-13.59.03Z"/>
</svg>