<?xml version="1.0" encoding="UTF-8"?>
<svg id="Layer_1" data-name="Layer 1" xmlns="http://www.w3.org/2000/svg" viewBox="0 0 400 512">
  <defs>
    <style>
      .cls-1 {
        fill: #fff;
        stroke-width: 0px;
      }
    </style>
  </defs>
  <path class="cls-1" d="m294.18,491.79c0-8.6,0-16.5,0-24.39,0-10.97-.08-21.95.03-32.92.14-15.12,10.94-25.61,26.44-25.67,18.07-.07,36.14-.1,54.21.05,3.55.03,4.57-1.03,4.57-4.48-.08-125.59-.07-251.17-.08-376.76,0-6.03-1.63-7.56-7.88-7.56-114.25,0-228.5,0-342.75,0-6.49,0-8,1.47-8.01,7.85-.02,18.48.03,36.95-.03,55.43-.02,6.28-3.38,10.31-8.81,10.93-6.75.78-11.65-3.78-11.7-11.16-.09-12.92-.03-25.84-.03-38.76,0-6.11-.06-12.23.02-18.34C.34,10.77,11.33.02,26.87.02c115.39-.02,230.78-.02,346.17,0,15.97,0,26.86,10.79,26.87,26.68.04,63.35.02,126.7.02,190.05,0,66.13-.04,132.25.08,198.38,0,5.42-1.77,9.48-5.69,13.27-26.67,25.82-53.26,51.72-79.72,77.75-4.11,4.04-8.42,5.79-14.32,5.78-90.49-.15-180.98-.29-271.47.07C12.84,512.06-.04,501.09,0,483.95c.26-101.83.13-203.66.13-305.49,0-8.07,3.7-12.6,10.26-12.64,5.41-.03,9.58,3.48,10.15,8.72.22,2.06.15,4.16.15,6.24,0,100.58,0,201.16,0,301.74,0,8.32.97,9.25,9.58,9.25,85.94,0,171.87,0,257.81,0,1.82,0,3.65,0,6.09,0Zm68.76-62.71c-.85-.08-1.94-.26-3.03-.26-12.66-.02-25.31-.03-37.97,0-5.79.02-7.18,1.43-7.19,7.25-.02,12.22-.01,24.44,0,36.66,0,1.18.15,2.35.22,3.4,16.01-15.7,31.89-31.28,47.96-47.05Z"/>
  <path class="cls-1" d="m165.62,84.92h68.92c-4.99-8.13-9.79-15.63-14.2-23.33-1.38-2.42-2.43-5.45-2.32-8.15.17-4.22,3.06-7.19,7.3-8.25,4.16-1.03,8.04-.1,10.66,3.45,2.24,3.03,4.13,6.31,6.12,9.52,5,8.08,9.85,16.25,15.06,24.2.92,1.41,3.2,2.62,4.94,2.74,5.38.35,10.8.05,16.21.15,12.19.23,19.24,10.09,14.97,21.26-8.11,21.19-16.4,42.31-24.72,63.41-2.67,6.78-7.83,10.31-15.43,10.31-35.42-.02-70.83.02-106.25-.03-7.81-.01-12.7-3.47-15.54-10.71-8.13-20.73-16.27-41.46-24.3-62.23-4.69-12.11,2.32-21.93,15.6-22.02,5.12-.04,10.26.23,15.35-.14,1.74-.12,4.02-1.35,4.93-2.76,6.57-10.23,12.66-20.76,19.36-30.9,1.77-2.67,4.87-5.1,7.91-6.22,3.82-1.4,7.57.34,10.07,3.7,2.72,3.65,2.67,7.54.38,11.34-3.96,6.58-8.05,13.09-12.07,19.64-.92,1.5-1.77,3.04-2.93,5.04Zm23.73,75.25c.18-1.3.36-1.98.36-2.65.02-16.24-.05-32.47.08-48.71.02-3.11-1.33-3.63-4.1-3.62-17.77.09-35.53.04-53.3.06-1.08,0-2.16.2-3.32.32,0,.68-.12,1.12.02,1.46,6.57,16.99,13.13,33.98,19.81,50.93.37.93,1.73,2.1,2.65,2.11,12.48.14,24.96.09,37.79.09Zm21.24-.21c1.63.09,3.02.23,4.4.23,10.38.02,20.75-.12,31.12.09,3.28.07,4.75-1.09,5.85-3.99,5.98-15.73,12.15-31.38,18.22-47.07.43-1.11.65-2.29,1.05-3.71h-60.65v54.45Z"/>
  <path class="cls-1" d="m238.98,243.24c-20.75,0-41.5,0-62.24,0-8.59,0-13.45-3.63-13.47-9.98-.02-6.31,4.95-10.1,13.4-10.1,41.78-.01,83.56-.02,125.34.02,2.11,0,4.3.15,6.3.73,4.5,1.32,7.01,5.2,6.79,9.89-.21,4.52-3.33,8.21-7.93,9.06-1.93.36-3.96.36-5.94.36-20.75.02-41.5.01-62.24.01Z"/>
  <path class="cls-1" d="m238.84,313.67c-20.32,0-40.64,0-60.96,0-1.56,0-3.14.05-4.69-.1-5.82-.56-9.99-4.82-9.93-10.08.06-5.28,4.29-9.39,10.14-9.84,1.27-.1,2.56-.07,3.83-.07,41.35,0,82.71,0,124.06,0,1.84,0,3.72-.01,5.52.28,4.83.8,8.1,4.53,8.28,9.21.19,4.85-2.52,8.76-7.27,9.97-2.02.52-4.21.59-6.33.59-20.89.04-41.78.02-62.67.02Z"/>
  <path class="cls-1" d="m239.04,384c-20.61,0-41.21,0-61.82,0-1.7,0-3.43.05-5.1-.2-5.02-.73-8.81-4.97-8.85-9.75-.05-4.77,3.65-9.07,8.68-9.9,1.53-.25,3.11-.21,4.67-.21,41.78-.01,83.56,0,125.34,0,1.56,0,3.15-.03,4.67.22,5.2.87,8.52,4.82,8.48,9.91-.04,5.03-3.51,8.97-8.72,9.71-1.68.24-3.4.2-5.1.2-20.75.01-41.5,0-62.24,0Z"/>
  <path class="cls-1" d="m112.02,228.94c4.89-7.36,9.29-14.15,13.87-20.82,2.9-4.22,7.79-5.67,12.33-3.99,4.37,1.62,7.21,6.09,6.4,10.61-.31,1.72-1.1,3.46-2.07,4.95-6.24,9.62-12.49,19.22-18.92,28.71-4.39,6.48-10.43,7.29-16.72,2.39-5.89-4.59-11.72-9.26-17.48-14-5.16-4.24-6.04-10.23-2.32-14.66,3.78-4.52,9.91-4.92,15.2-.9,3.12,2.37,6.14,4.86,9.71,7.7Z"/>
  <path class="cls-1" d="m112.07,299.23c4.71-7.09,9.17-13.83,13.67-20.55,2.4-3.59,5.83-5.24,10.19-4.71,3.83.46,7.04,2.45,7.9,6.07.65,2.74.76,6.41-.61,8.67-6.38,10.5-13.23,20.74-20.19,30.89-3.71,5.41-9.94,6.22-15.25,2.19-6.51-4.94-12.87-10.08-19.15-15.3-4.4-3.66-4.97-9.67-1.63-13.83,3.51-4.37,9.58-5.15,14.48-1.65,3.52,2.52,6.85,5.3,10.61,8.23Z"/>
  <path class="cls-1" d="m112.07,369.59c4.62-6.97,8.96-13.61,13.41-20.18,3.09-4.56,7.4-6.17,12.06-4.75,6.06,1.86,9.38,8.37,6.13,13.65-6.81,11.05-14.01,21.9-21.45,32.56-3.23,4.62-9.32,5.11-14.05,1.54-6.75-5.09-13.33-10.4-19.79-15.85-4.23-3.57-4.65-9.41-1.44-13.51,3.36-4.28,9.36-5.25,14.1-1.98,3.68,2.54,7.09,5.45,11.03,8.5Z"/>
  <path class="cls-1" d="m20.63,130.33c-.09,5.66-4.58,9.84-10.44,9.72-5.47-.12-9.98-4.56-10.01-9.87-.03-5.35,4.88-10.1,10.37-10.05,5.66.05,10.16,4.6,10.07,10.2Z"/>
</svg>