<?xml version="1.0" encoding="UTF-8"?>
<svg id="Layer_1" data-name="Layer 1" xmlns="http://www.w3.org/2000/svg" viewBox="0 0 512 512">
  <defs>
    <style>
      .cls-1 {
        fill: #fff;
        stroke-width: 0px;
      }
    </style>
  </defs>
  <path class="cls-1" d="m256.19,512C114.88,512.18.19,397.66,0,256.19-.19,114.89,114.35.18,255.81,0c141.3-.18,256,114.35,256.19,255.81.18,141.31-114.35,256-255.81,256.19Zm215.79-256.11c-.09-119.22-96.92-215.96-216.09-215.87-119.23.09-215.95,96.92-215.86,216.09.09,119.23,96.92,215.96,216.09,215.87,119.23-.09,215.95-96.91,215.86-216.09Z"/>
  <path class="cls-1" d="m220.97,295.16c5.51-5.68,10.46-10.91,15.55-16.01,34.04-34.09,68.11-68.15,102.17-102.22,7.71-7.71,15.84-9.88,24.04-6.43,12.46,5.25,16.49,21.08,7.33,31.24-9.01,9.99-18.81,19.26-28.33,28.79-34.74,34.77-69.54,69.48-104.22,104.31-6.46,6.49-13.67,10.2-22.77,7.06-3.27-1.13-6.48-3.29-8.97-5.74-20.74-20.49-41.3-41.16-61.92-61.77-6.26-6.26-8.6-13.62-5.52-22.06,2.7-7.37,8.25-11.73,16.07-12.82,7.15-1,13,1.76,17.97,6.77,7.34,7.39,14.72,14.73,22.07,22.12,8.6,8.65,17.18,17.34,26.52,26.77Z"/>
</svg>