<?xml version="1.0" encoding="UTF-8"?>
<svg id="Layer_1" data-name="Layer 1" xmlns="http://www.w3.org/2000/svg" viewBox="0 0 512 512">
  <defs>
    <style>
      .cls-1 {
        fill: #fff;
        stroke-width: 0px;
      }
    </style>
  </defs>
  <path class="cls-1" d="m290,0c3.35.9,6.73,1.69,10.04,2.73,24.3,7.61,40.85,29.36,41.1,54.95.3,31.99.13,63.99.07,95.98-.02,9.89-6.74,16.98-15.78,17.06-9.06.08-16.12-7.31-16.15-17.36-.09-31.16.02-62.32-.06-93.49-.04-14.42-8.54-24.89-22.01-27.44-1.79-.34-3.64-.42-5.47-.42-43.66-.02-87.32-.02-130.98-.01-.66,0-1.32.06-3.27.16,2.33.93,3.55,1.49,4.82,1.92,10.71,3.61,21.48,7.09,32.15,10.83,17.12,6,28.38,21.29,28.69,39.4.29,17.16.1,34.33.1,51.49,0,90.99,0,181.97,0,272.96v6.94c1.88.11,3.46.28,5.05.29,20.83.02,41.66.04,62.49,0,17.37-.03,28.4-10.99,28.44-28.41.07-30.83-.03-61.66.05-92.49.03-12.2,9.25-19.96,20.12-17.16,6.46,1.66,11.2,7.28,11.74,13.95.11,1.33.1,2.66.1,4,0,30.66.08,61.32-.02,91.99-.11,34.8-25.58,60.09-60.41,60.13-20.5.02-40.99,0-61.49,0h-6.07c0,5.99,0,11.6,0,17.21-.02,25.21-11.1,39.63-35.47,46.19-.29.08-.51.39-.77.59h-13c-2.98-.94-5.97-1.83-8.93-2.82-41.44-13.77-82.9-27.47-124.3-41.37-16.04-5.38-26.3-16.28-29.94-33.05-.13-.62-.55-1.18-.83-1.76C0,300.67,0,168.33,0,36c3.33-6.89,5.87-14.33,10.18-20.54C16.48,6.37,26.47,2.42,37,0,121.33,0,205.67,0,290,0Zm-108.76,277.22c0-62.98,0-125.95,0-188.93,0-8.55-2.04-11.51-9.78-14.09-41.01-13.68-82.03-27.35-123.06-40.98-10.04-3.33-16.39,1.3-16.39,11.88-.01,126.45-.01,252.91,0,379.36,0,7.59,2.32,10.79,9.6,13.23,11.82,3.97,23.68,7.87,35.51,11.81,29.03,9.68,58.06,19.37,87.1,29.04,11.03,3.67,16.98-.67,17.03-12.4,0-1.33,0-2.67,0-4,0-61.64,0-123.28,0-184.93Z"/>
  <path class="cls-1" d="m512,229c-3.3,3.84-6.38,7.91-9.95,11.49-24.56,24.69-49.17,49.31-73.86,73.87-9.67,9.63-24.42,6.15-27.65-6.44-1.65-6.41.54-11.69,5.16-16.27,15.84-15.73,31.59-31.55,47.37-47.34,1.13-1.13,2.18-2.34,4-4.31-2.72,0-4.47,0-6.22,0-51.98,0-103.96.02-155.94-.01-12.07,0-19.88-9.38-16.98-20.21,1.72-6.44,7.29-11.12,14.04-11.7,1.82-.16,3.66-.08,5.5-.08,50.98,0,101.96,0,152.94,0h6.69c-1.76-1.89-2.86-3.15-4.05-4.34-16.01-16.03-32.07-32.01-48.03-48.09-5.27-5.3-6.42-12.1-3.51-18.36,2.81-6.04,9.2-10.12,15.82-8.97,3.56.62,7.54,2.29,10.06,4.77,26.83,26.41,53.43,53.06,80.02,79.72,1.81,1.81,3.06,4.17,4.57,6.27v10Z"/>
</svg>