<?xml version="1.0" encoding="UTF-8"?>
<svg id="Layer_1" data-name="Layer 1" xmlns="http://www.w3.org/2000/svg" viewBox="0 0 512 250">
  <defs>
    <style>
      .cls-1 {
        fill: #fff;
      }

      .cls-1, .cls-2 {
        stroke-width: 0px;
      }

      .cls-2 {
        fill: #50b450;
      }
    </style>
  </defs>
  <g>
    <path class="cls-1" d="m0,84.95l17.53-18.15c9.54,8.86,19.49,13.36,30.29,13.36,6.45,0,11.08-2.81,11.08-7.32,0-3.8-2.66-5.77-16.41-11.11-15.57-5.91-25.52-12.66-25.52-27.15C16.97,15.05,34.64,1.12,58.62,1.12c17.25,0,30.85,5.63,40.25,14.63l-16.83,18.85c-7.43-6.47-15.99-10.83-25.94-10.83-6.59,0-10.66,3.09-10.66,7.03s2.95,5.35,16.41,10.69c15.14,5.77,25.52,12.66,25.52,27.43,0,20.25-17.39,34.04-41.79,34.04-19.21,0-35.06-6.61-45.58-18Z"/>
    <path class="cls-1" d="m130.98,26.72h-29.45l6.45-23.91h85.96l-6.31,23.91h-29.45l-19.91,74.55h-27.34l20.05-74.55Z"/>
    <path class="cls-1" d="m186.79,58.93c0-29.96,24.4-57.95,58.48-57.95,27.91,0,46.84,19.13,46.84,44.17,0,29.96-24.4,57.95-58.48,57.95-27.91,0-46.84-19.13-46.84-44.17Zm77.55-11.67c0-12.52-7.57-21.8-21.46-21.8-17.11,0-28.32,16.74-28.32,31.37,0,12.52,7.57,21.8,21.45,21.8,17.25,0,28.33-16.74,28.33-31.37Z"/>
    <path class="cls-1" d="m300.67,60.2c0-29.12,23.56-59.36,61.28-59.36,20.05,0,33.94,9.71,39.83,24.9l-23.56,12.66c-3.93-8.02-10.09-12.66-19.77-12.66-16.27,0-29.31,15.33-29.31,32.49,0,12.52,8.27,20.25,19.63,20.25,8.55,0,14.72-3.66,21.03-9.99l18.37,16.32c-9.53,10.83-22.44,18.43-41.09,18.43-27.21,0-46.42-16.74-46.42-43.04Z"/>
    <path class="cls-1" d="m420.15,2.81h27.34l-10.66,39.38L477.36,2.81h34.64l-46.28,43.18,21.87,55.28h-29.45l-14.16-37.98-16.97,15.61-5.89,22.36h-27.35L420.15,2.81Z"/>
  </g>
  <g>
    <rect class="cls-2" x="192" y="121.16" width="320" height="128" rx="64" ry="64"/>
    <g>
      <path class="cls-1" d="m220.16,190.34c0-22.53,18.41-43.58,44.11-43.58,21.05,0,35.33,14.39,35.33,33.22,0,22.53-18.41,43.58-44.11,43.58-21.05,0-35.33-14.39-35.33-33.22Zm58.5-8.78c0-9.42-5.71-16.4-16.18-16.4-12.91,0-21.37,12.59-21.37,23.59,0,9.42,5.71,16.4,16.18,16.4,13.01,0,21.37-12.59,21.37-23.59Z"/>
      <path class="cls-1" d="m319.28,148.14h19.15l19.15,41.15,11.11-41.15h20.42l-19.89,74.05h-17.98l-19.99-42.63-11.42,42.63h-20.42l19.89-74.05Z"/>
    </g>
    <circle class="cls-1" cx="445.44" cy="185.16" r="38.4"/>
  </g>
  <path class="cls-1" d="m47,176.94l-31.19-21.91c-6.65-4.67-15.81.09-15.81,8.22v43.81c0,8.13,9.16,12.89,15.81,8.22l31.19-21.91c5.69-4,5.69-12.44,0-16.44Z"/>
  <path class="cls-1" d="m111.06,176.94l-31.19-21.91c-6.65-4.67-15.81.09-15.81,8.22v43.81c0,8.13,9.16,12.89,15.81,8.22l31.19-21.91c5.69-4,5.69-12.44,0-16.44Z"/>
  <path class="cls-1" d="m175.11,176.94l-31.19-21.91c-6.65-4.67-15.81.09-15.81,8.22v43.81c0,8.13,9.16,12.89,15.81,8.22l31.19-21.91c5.69-4,5.69-12.44,0-16.44Z"/>
</svg>