<?xml version="1.0" encoding="UTF-8"?>
<svg id="Layer_1" data-name="Layer 1" xmlns="http://www.w3.org/2000/svg" viewBox="0 0 512 512">
  <defs>
    <style>
      .cls-1 {
        fill: #ff9801;
      }

      .cls-1, .cls-2, .cls-3, .cls-4, .cls-5 {
        stroke-width: 0px;
      }

      .cls-3 {
        fill: #f5f5f5;
      }

      .cls-4 {
        fill: #f57c00;
      }

      .cls-5 {
        fill: #ff5722;
      }
    </style>
  </defs>
  <path class="cls-2" d="m512,246.36c.15-15.74-10.82-29.22-28.72-28.83-24.67.54-49.37.13-74.05.13h-6.46c7.54-8.72,6.72-18.13,6.72-27.4-.02-36.48,0-72.96,0-109.43,0-13.87.15-27.74-.06-41.6-.24-15.09-10.77-25.81-25.81-25.85-53.95-.14-107.9-.16-161.84.14-4.84.03-10.23,1.89-14.35,4.49-9.96,6.27-19.28,13.54-28.92,20.31-17.69,12.43-35.2,25.15-53.27,37.04-9.62,6.34-14.46,14.32-14.38,25.78.16,25.8.05,51.6.05,77.39,0,11.52-.09,23.03.06,34.54.05,3.11-.51,4.52-4.05,5.11-3.71.63-7.49,2.22-10.66,4.3-7.64,5.01-14.9,10.6-22.4,15.85-19.85,13.95-39.55,28.14-59.72,41.6C4.85,286.13,0,293.8,0,304.96c.09,55.34.04,110.69.05,166.03,0,17.02,10.42,27.66,27.36,27.67,58.53.06,117.05,0,175.58.05,6.13,0,11.75-1.37,16.87-4.93.89-.63,2.95-.66,3.83-.05,5.11,3.55,10.71,4.98,16.86,4.97,58.52-.03,117.05-.05,175.57.03,8.39,0,15.29-2.81,21.23-8.77,21.7-21.84,43.48-43.6,65.36-65.25,6.3-6.23,9.22-13.4,9.19-22.31-.15-52.01-.39-104.03.11-156.04Zm-121.24-203.57c.19-.16.51-.16,1.65-.47v4.83c0,49.94-.04,99.87.06,149.8,0,4.74-1.22,8.45-4.7,11.85-14.35,14.08-28.5,28.38-42.73,42.58-.93.93-1.94,1.76-3.82,3.45v-5.91c0-48.96.04-97.92-.07-146.89,0-3.97-1-7.93-1.34-11.91-.09-1.19.06-2.91.81-3.58,16.65-14.65,33.4-29.19,50.15-43.75Zm-83.33-10.39c1.33-1.01,3.17-1.93,4.78-1.94,21.33-.12,42.67-.08,64.01-.05.37,0,.75.17,2.56.64-1.74,1.24-2.87,1.92-3.85,2.78-15.15,13.2-30.24,26.46-45.47,39.55-1.16,1-3.34,1.24-5,1.11-3.83-.29-7.62-1.49-11.44-1.53-17.18-.18-34.36-.08-51.54-.09-1.45,0-2.89-.12-5.49-.25,1.86-1.58,2.82-2.47,3.84-3.27,15.85-12.34,31.69-24.69,47.61-36.95Zm-133.49,29.97c14.24-10.08,28.47-20.18,42.78-30.17,1.39-.97,3.28-1.72,4.95-1.73,19.26-.12,38.51-.09,57.77-.07.36,0,.73.2,1.58.46-1.22,1.1-2.14,2.04-3.17,2.83-15.86,12.34-31.7,24.68-47.63,36.89-1.54,1.18-3.68,2.17-5.55,2.18-20.37.15-40.73.1-61.1.09-.79,0-1.57-.16-2.36-.26-.13-.3-.27-.61-.4-.92,4.37-3.1,8.74-6.22,13.12-9.31Zm-64.43,171.87c.56.38,1.12.77,1.69,1.15v41.41h-62.43c20.89-14.64,40.81-28.6,60.74-42.55Zm92.05,247.37c-28.83,0-57.67,0-86.51,0s-57.94,0-86.92,0c-8.13,0-11.05-2.89-11.05-10.98-.02-55.04-.02-110.09,0-165.13,0-8.3,2.92-11.18,11.32-11.18,57.81,0,115.62,0,173.43,0,8.76,0,11.36,2.64,11.36,11.46,0,54.76,0,109.53,0,164.29,0,9.05-2.52,11.53-11.64,11.53Zm-62.12-204.44c-8.83,0-11.39-2.58-11.4-11.38,0-54.9,0-109.8,0-164.69,0-8.44,2.67-11.09,11.25-11.09,57.8-.02,115.6,0,173.41,0,8.82,0,11.34,2.54,11.34,11.4,0,54.76,0,109.52,0,164.28,0,9.08-2.45,11.5-11.62,11.5-28.83,0-57.67,0-86.5,0s-57.67,0-86.49,0Zm275.8,204.44c-28.98,0-57.94,0-86.92,0s-57.94,0-86.92,0c-8.2,0-11.06-2.79-11.06-10.95-.02-55.18-.02-110.35,0-165.54,0-7.86,2.97-10.8,10.85-10.8,58.08-.02,116.17,0,174.25,0,8.12,0,11.13,2.97,11.13,10.99.02,55.04.02,110.08,0,165.12,0,8.33-2.93,11.18-11.35,11.18Zm16.95-203.97c-1.84,1.62-3.31,2.09-5.86,1.32-3.65-1.1-7.59-1.69-11.41-1.72-21.89-.15-43.78-.07-65.67-.07h-5.31c1.16-1.44,1.73-2.3,2.44-3.02,12.34-12.35,24.64-24.73,37.09-36.97,1.24-1.22,3.29-2.28,4.98-2.29,29.79-.13,59.57-.09,89.36-.09.54,0,1.08.15,2.82.41-4.85,4.26-8.97,7.88-13.09,11.49-11.79,10.3-23.62,20.56-35.35,30.93Zm57.72,135.72c-14.16,13.88-28.1,27.98-42.14,41.98-1.02,1.01-2.12,1.97-4.16,3.86v-6.05c0-48.4.05-96.81-.07-145.21,0-4.51-1.08-9.02-1.44-13.55-.09-1.18.25-2.87,1.04-3.58,16.76-14.73,33.61-29.35,50.46-43.99.09-.08.27-.05,1.18-.18v4.78c0,49.92-.05,99.85.08,149.78,0,4.94-1.39,8.69-4.95,12.16Z"/>
  <path class="cls-4" d="m281.02,30.87c-1.22,1.1-2.14,2.04-3.17,2.83-15.86,12.34-31.7,24.68-47.63,36.89-1.54,1.18-3.68,2.17-5.55,2.18-20.37.15-40.73.1-61.1.09-.79,0-1.57-.16-2.36-.26-.13-.3-.27-.61-.4-.92,4.37-3.1,8.74-6.22,13.12-9.31,14.24-10.08,28.47-20.18,42.78-30.17,1.39-.97,3.28-1.72,4.95-1.73,19.26-.12,38.51-.09,57.77-.07.36,0,.73.2,1.58.46Z"/>
  <path class="cls-4" d="m378.77,31.05c-1.74,1.24-2.87,1.92-3.85,2.78-15.15,13.2-30.24,26.46-45.47,39.55-1.16,1-3.34,1.24-5,1.11-3.83-.29-7.62-1.49-11.44-1.53-17.18-.18-34.36-.08-51.54-.09-1.45,0-2.89-.12-5.49-.25,1.86-1.58,2.82-2.47,3.84-3.27,15.85-12.34,31.69-24.69,47.61-36.95,1.33-1.01,3.17-1.93,4.78-1.94,21.33-.12,42.67-.08,64.01-.05.37,0,.75.17,2.56.64Z"/>
  <path class="cls-5" d="m392.47,196.94c0,4.74-1.22,8.45-4.7,11.85-14.35,14.08-28.5,28.38-42.73,42.58-.93.93-1.94,1.76-3.82,3.45v-5.91c0-48.96.04-97.92-.07-146.89,0-3.97-1-7.93-1.34-11.91-.09-1.19.06-2.91.81-3.58,16.65-14.65,33.4-29.19,50.15-43.75.19-.16.51-.16,1.65-.47v4.83c0,49.94-.04,99.87.06,149.8Z"/>
  <path class="cls-1" d="m312.71,90c-57.81,0-115.61,0-173.41,0-8.58,0-11.25,2.65-11.25,11.09,0,54.9,0,109.8,0,164.69,0,8.8,2.57,11.38,11.4,11.38,28.82,0,57.66,0,86.49,0s57.67,0,86.5,0c9.18,0,11.62-2.42,11.62-11.5,0-54.76,0-109.52,0-164.28,0-8.86-2.52-11.39-11.34-11.4Zm-99.55,153.48c-.3,9.7-7.27,16.49-17.05,16.7-5.68.11-11.35.02-17.03.02-5.68,0-11.35.1-17.03-.03-9.82-.23-16.86-7.36-17.04-17.23-.1-5.54-.11-11.07,0-16.61.21-9.8,7.34-16.99,17.18-17.12,11.35-.14,22.7-.15,34.05,0,9.73.14,16.65,7.1,16.91,16.83.17,5.81.17,11.63,0,17.44Zm85.21,16.68c-4.3.14-8.59.03-12.89.03-4.16,0-8.32.1-12.48-.04-4.87-.17-8.23-3.47-8.45-7.98-.23-4.72,2.99-8.68,8.01-8.85,8.72-.29,17.46-.27,26.19-.02,5.06.14,8.36,3.94,8.26,8.63-.1,4.67-3.56,8.07-8.65,8.23Zm-.06-34.06c-4.3.11-8.6.02-12.89.02-4.15,0-8.32.1-12.47-.04-4.86-.17-8.21-3.5-8.39-8.04-.19-4.78,3.05-8.63,8.07-8.76,8.72-.24,17.46-.24,26.19,0,5.03.12,8.33,3.93,8.2,8.66-.13,4.68-3.59,8.03-8.7,8.17Z"/>
  <path class="cls-4" d="m111.2,235.39v41.41h-62.43c20.89-14.64,40.81-28.6,60.74-42.55.56.38,1.12.77,1.69,1.15Z"/>
  <path class="cls-5" d="m494.86,401.2c0,4.94-1.39,8.69-4.95,12.16-14.16,13.88-28.1,27.98-42.14,41.98-1.02,1.01-2.12,1.97-4.16,3.86v-6.05c0-48.4.05-96.81-.07-145.21,0-4.51-1.08-9.02-1.44-13.55-.09-1.18.25-2.87,1.04-3.58,16.76-14.73,33.61-29.35,50.46-43.99.09-.08.27-.05,1.18-.18v4.78c0,49.92-.05,99.85.08,149.78Z"/>
  <path class="cls-4" d="m480.62,235.23c-4.85,4.26-8.97,7.88-13.09,11.49-11.79,10.3-23.62,20.56-35.35,30.93-1.84,1.62-3.31,2.09-5.86,1.32-3.65-1.1-7.59-1.69-11.41-1.72-21.89-.15-43.78-.07-65.67-.07h-5.31c1.16-1.44,1.73-2.3,2.44-3.02,12.34-12.35,24.64-24.73,37.09-36.97,1.24-1.22,3.29-2.28,4.98-2.29,29.79-.13,59.57-.09,89.36-.09.54,0,1.08.15,2.82.41Z"/>
  <path class="cls-1" d="m213.19,305.79c0-8.83-2.6-11.46-11.36-11.46-57.81,0-115.62,0-173.43,0-8.4,0-11.32,2.88-11.32,11.18-.02,55.04-.02,110.09,0,165.13,0,8.09,2.92,10.97,11.05,10.98,28.98,0,57.95,0,86.92,0s57.68,0,86.51,0c9.12,0,11.63-2.47,11.64-11.53,0-54.76,0-109.53,0-164.29Zm-110.89,142.43c-.41,9.44-7.51,16.21-17,16.42-5.81.12-11.62.02-17.44.02s-11.07.09-16.61-.02c-9.6-.21-16.8-7.26-17.09-16.82-.17-5.81-.17-11.63,0-17.44.27-9.43,7.26-16.58,16.66-16.76,11.62-.21,23.26-.21,34.88,0,9.3.17,16.19,7.02,16.59,16.33.26,6.08.26,12.18,0,18.26Zm85.22,16.39c-8.46.15-16.91.16-25.37-.02-5.07-.1-8.42-3.68-8.44-8.43-.02-4.76,3.31-8.31,8.35-8.52,4.29-.19,8.59-.04,12.89-.04v-.02c4.16,0,8.32-.11,12.48.03,5.21.18,8.79,3.84,8.69,8.67-.09,4.67-3.55,8.24-8.6,8.33Zm-.14-34c-.27.02-.56,0-.83,0h-11.64c-4.15,0-8.32.1-12.47-.04-5.29-.18-8.74-3.71-8.71-8.61.03-4.76,3.33-8.24,8.49-8.34,8.45-.17,16.91-.17,25.35,0,5.12.1,8.51,3.62,8.56,8.32.05,4.83-3.53,8.37-8.74,8.67Z"/>
  <path class="cls-1" d="m426.57,305.32c0-8.02-3.02-10.99-11.13-10.99-58.08,0-116.17-.02-174.25,0-7.88,0-10.84,2.94-10.85,10.8-.02,55.18-.02,110.35,0,165.54,0,8.16,2.85,10.95,11.06,10.95,28.98,0,57.94,0,86.92,0s57.94,0,86.92,0c8.42,0,11.35-2.84,11.35-11.18,0-55.04,0-110.08,0-165.12Zm-110.95,142.3c-.34,9.92-7.43,16.91-17.29,17.02-11.22.13-22.42.13-33.64,0-9.58-.1-16.58-6.63-17.16-16.2-.37-6.2-.38-12.47,0-18.68.59-9.62,7.48-15.96,17.17-16.17,5.54-.12,11.07-.03,16.61-.03s11.35-.09,17.03.03c9.95.21,16.94,7.05,17.28,17.01.2,5.66.2,11.35,0,17.02Zm84.59,17.05c-.27,0-.55,0-.82,0h-11.24v-.02c-4.15,0-8.32.11-12.48-.03-5.26-.17-8.83-3.75-8.79-8.57.04-4.8,3.64-8.35,8.93-8.44,8.17-.12,16.36-.11,24.54,0,5.28.08,8.95,3.6,9.04,8.38.09,4.91-3.67,8.48-9.18,8.68Zm.21-34.08c-8.18.12-16.36.12-24.54,0-5.31-.08-8.91-3.59-9-8.38-.09-5.03,3.5-8.41,9.14-8.64.27-.02.56,0,.83,0h11.23c4.15,0,8.32-.09,12.47.04,5.28.17,8.89,3.76,8.84,8.55-.07,4.78-3.71,8.36-8.97,8.44Z"/>
  <path class="cls-2" d="m315.62,430.59c-.34-9.96-7.34-16.8-17.28-17.01-5.68-.12-11.35-.03-17.03-.03s-11.07-.09-16.61.03c-9.69.21-16.58,6.54-17.17,16.17-.38,6.21-.37,12.48,0,18.68.58,9.58,7.59,16.1,17.16,16.2,11.22.13,22.42.13,33.64,0,9.86-.11,16.95-7.1,17.29-17.02.2-5.67.2-11.36,0-17.02Zm-17.35,16.68c-1.23.09-2.54.27-3.86.28-8.69.02-17.41-.08-26.1.07-2.78.04-4.02-.65-3.87-3.67.21-4.24.05-8.5.05-13.17h33.78v16.49Z"/>
  <path class="cls-3" d="m298.27,430.78v16.49c-1.23.09-2.54.27-3.86.28-8.69.02-17.41-.08-26.1.07-2.78.04-4.02-.65-3.87-3.67.21-4.24.05-8.5.05-13.17h33.78Z"/>
  <path class="cls-2" d="m409.39,422.15c-.07,4.78-3.71,8.36-8.97,8.44-8.18.12-16.36.12-24.54,0-5.31-.08-8.91-3.59-9-8.38-.09-5.03,3.5-8.41,9.14-8.64.27-.02.56,0,.83,0h11.23c4.15,0,8.32-.09,12.47.04,5.28.17,8.89,3.76,8.84,8.55Z"/>
  <path class="cls-2" d="m409.39,455.99c.09,4.91-3.67,8.48-9.18,8.68-.27,0-.55,0-.82,0h-11.24v-.02c-4.15,0-8.32.11-12.48-.03-5.26-.17-8.83-3.75-8.79-8.57.04-4.8,3.64-8.35,8.93-8.44,8.17-.12,16.36-.11,24.54,0,5.28.08,8.95,3.6,9.04,8.38Z"/>
  <path class="cls-2" d="m102.3,429.96c-.4-9.31-7.29-16.16-16.59-16.33-11.62-.22-23.26-.22-34.88,0-9.4.18-16.38,7.33-16.66,16.76-.17,5.8-.17,11.62,0,17.44.28,9.56,7.48,16.61,17.09,16.82,5.54.11,11.07.02,16.61.02,5.81,0,11.62.1,17.44-.02,9.49-.21,16.59-6.98,17-16.42.26-6.08.26-12.18,0-18.26Zm-17.3,17.34h-33.51v-16.33h33.51v16.33Z"/>
  <rect class="cls-3" x="51.49" y="430.97" width="33.51" height="16.33"/>
  <path class="cls-2" d="m196.12,456.28c-.09,4.67-3.55,8.24-8.6,8.33-8.46.15-16.91.16-25.37-.02-5.07-.1-8.42-3.68-8.44-8.43-.02-4.76,3.31-8.31,8.35-8.52,4.29-.19,8.59-.04,12.89-.04v-.02c4.16,0,8.32-.11,12.48.03,5.21.18,8.79,3.84,8.69,8.67Z"/>
  <path class="cls-2" d="m196.12,421.95c.05,4.83-3.53,8.37-8.74,8.67-.27.02-.56,0-.83,0h-11.64c-4.15,0-8.32.1-12.47-.04-5.29-.18-8.74-3.71-8.71-8.61.03-4.76,3.33-8.24,8.49-8.34,8.45-.17,16.91-.17,25.35,0,5.12.1,8.51,3.62,8.56,8.32Z"/>
  <path class="cls-2" d="m213.16,226.04c-.27-9.73-7.19-16.69-16.91-16.83-11.35-.16-22.7-.15-34.05,0-9.84.13-16.97,7.32-17.18,17.12-.11,5.54-.1,11.07,0,16.61.18,9.87,7.22,17,17.04,17.23,5.68.13,11.35.02,17.03.03,5.68,0,11.35.09,17.03-.02,9.78-.21,16.74-7,17.05-16.7.17-5.8.17-11.62,0-17.44Zm-17.1,14.8c-.04.8-1.38,2.18-2.14,2.19-10.36.14-20.74.09-31.45.09v-16.66h33.69c0,5.01.1,9.7-.09,14.37Z"/>
  <path class="cls-3" d="m196.07,240.84c-.04.8-1.38,2.18-2.14,2.19-10.36.14-20.74.09-31.45.09v-16.66h33.69c0,5.01.1,9.7-.09,14.37Z"/>
  <path class="cls-2" d="m307.02,217.92c-.13,4.68-3.59,8.03-8.7,8.17-4.3.11-8.6.02-12.89.02-4.15,0-8.32.1-12.47-.04-4.86-.17-8.21-3.5-8.39-8.04-.19-4.78,3.05-8.63,8.07-8.76,8.72-.24,17.46-.24,26.19,0,5.03.12,8.33,3.93,8.2,8.66Z"/>
  <path class="cls-2" d="m307.02,251.93c-.1,4.67-3.56,8.07-8.65,8.23-4.3.14-8.59.03-12.89.03-4.16,0-8.32.1-12.48-.04-4.87-.17-8.23-3.47-8.45-7.98-.23-4.72,2.99-8.68,8.01-8.85,8.72-.29,17.46-.27,26.19-.02,5.06.14,8.36,3.94,8.26,8.63Z"/>
</svg>